<svg width="305" height="305" viewBox="0 0 305 305" fill="none" xmlns="http://www.w3.org/2000/svg">
<path d="M0 152C-1.74504e-06 171.961 3.93159 191.726 11.5703 210.168C19.209 228.609 30.4053 245.366 44.5198 259.48C58.6343 273.595 75.3906 284.791 93.8321 292.43C112.274 300.068 132.039 304 152 304C171.961 304 191.726 300.068 210.168 292.43C228.609 284.791 245.366 273.595 259.48 259.48C273.595 245.366 284.791 228.609 292.43 210.168C300.068 191.726 304 171.961 304 152L152 152L0 152Z" fill="#21209C"/>
<path d="M22.029 152C22.029 186.47 35.7223 219.529 60.0966 243.903C84.4709 268.278 117.53 281.971 152 281.971C186.47 281.971 219.529 268.278 243.903 243.903C268.278 219.529 281.971 186.47 281.971 152L152 152L22.029 152Z" fill="white"/>
<path d="M304.084 152.168C304.095 132.207 300.174 112.439 292.546 93.9937C284.917 75.548 273.73 58.7855 259.624 44.6632C245.517 30.5409 228.767 19.3354 210.329 11.6865C191.892 4.03756 172.129 0.0950416 152.168 0.0840104C132.207 0.0729792 112.439 3.99365 93.9937 11.6222C75.548 19.2507 58.7855 30.4377 44.6632 44.5444C30.5409 58.6511 19.3354 75.4013 11.6865 93.8385C4.03755 112.276 0.095034 132.039 0.084006 152L152.084 152.084L304.084 152.168Z" fill="white"/>
<path d="M282.055 152.156C282.074 117.685 268.399 84.6192 244.038 60.2314C219.677 35.8437 186.626 22.132 152.156 22.113C117.685 22.0939 84.6192 35.769 60.2314 60.1298C35.8437 84.4906 22.1321 117.542 22.113 152.012L152.084 152.084L282.055 152.156Z" fill="#21209C"/>
</svg>
