<svg width="438" height="176" viewBox="0 0 438 176" fill="none" xmlns="http://www.w3.org/2000/svg">
<path d="M11.9375 25.1875L12.2188 28.9688C14.6146 26.0312 17.8542 24.5625 21.9375 24.5625C26.2917 24.5625 29.2812 26.2812 30.9062 29.7188C33.2812 26.2812 36.6667 24.5625 41.0625 24.5625C44.7292 24.5625 47.4583 25.6354 49.25 27.7812C51.0417 29.9062 51.9375 33.1146 51.9375 37.4062V59H42.875V37.4375C42.875 35.5208 42.5 34.125 41.75 33.25C41 32.3542 39.6771 31.9062 37.7812 31.9062C35.0729 31.9062 33.1979 33.1979 32.1562 35.7812L32.1875 59H23.1562V37.4688C23.1562 35.5104 22.7708 34.0938 22 33.2188C21.2292 32.3438 19.9167 31.9062 18.0625 31.9062C15.5 31.9062 13.6458 32.9688 12.5 35.0938V59H3.46875V25.1875H11.9375ZM71.5312 46.2188L77.7812 25.1875H87.4688L73.875 64.25L73.125 66.0312C71.1042 70.4479 67.7708 72.6562 63.125 72.6562C61.8125 72.6562 60.4792 72.4583 59.125 72.0625V65.2188L60.5 65.25C62.2083 65.25 63.4792 64.9896 64.3125 64.4688C65.1667 63.9479 65.8333 63.0833 66.3125 61.875L67.375 59.0938L55.5312 25.1875H65.25L71.5312 46.2188ZM53.6562 124.656C53.6562 123.552 53.1042 122.688 52 122.062C50.9167 121.417 49.1667 120.844 46.75 120.344C38.7083 118.656 34.6875 115.24 34.6875 110.094C34.6875 107.094 35.9271 104.594 38.4062 102.594C40.9062 100.573 44.1667 99.5625 48.1875 99.5625C52.4792 99.5625 55.9062 100.573 58.4688 102.594C61.0521 104.615 62.3438 107.24 62.3438 110.469H53.3125C53.3125 109.177 52.8958 108.115 52.0625 107.281C51.2292 106.427 49.9271 106 48.1562 106C46.6354 106 45.4583 106.344 44.625 107.031C43.7917 107.719 43.375 108.594 43.375 109.656C43.375 110.656 43.8438 111.469 44.7812 112.094C45.7396 112.698 47.3438 113.229 49.5938 113.688C51.8438 114.125 53.7396 114.625 55.2812 115.188C60.0521 116.938 62.4375 119.969 62.4375 124.281C62.4375 127.365 61.1146 129.865 58.4688 131.781C55.8229 133.677 52.4062 134.625 48.2188 134.625C45.3854 134.625 42.8646 134.125 40.6562 133.125C38.4688 132.104 36.75 130.719 35.5 128.969C34.25 127.198 33.625 125.292 33.625 123.25H42.1875C42.2708 124.854 42.8646 126.083 43.9688 126.938C45.0729 127.792 46.5521 128.219 48.4062 128.219C50.1354 128.219 51.4375 127.896 52.3125 127.25C53.2083 126.583 53.6562 125.719 53.6562 124.656ZM83.8438 134.625C78.8854 134.625 74.8438 133.104 71.7188 130.062C68.6146 127.021 67.0625 122.969 67.0625 117.906V117.031C67.0625 113.635 67.7188 110.604 69.0312 107.938C70.3438 105.25 72.1979 103.188 74.5938 101.75C77.0104 100.292 79.7604 99.5625 82.8438 99.5625C87.4688 99.5625 91.1042 101.021 93.75 103.938C96.4167 106.854 97.75 110.99 97.75 116.344V120.031H76.2188C76.5104 122.24 77.3854 124.01 78.8438 125.344C80.3229 126.677 82.1875 127.344 84.4375 127.344C87.9167 127.344 90.6354 126.083 92.5938 123.562L97.0312 128.531C95.6771 130.448 93.8438 131.948 91.5312 133.031C89.2188 134.094 86.6562 134.625 83.8438 134.625ZM82.8125 106.875C81.0208 106.875 79.5625 107.479 78.4375 108.688C77.3333 109.896 76.625 111.625 76.3125 113.875H88.875V113.156C88.8333 111.156 88.2917 109.615 87.25 108.531C86.2083 107.427 84.7292 106.875 82.8125 106.875ZM121.906 108.656C120.677 108.49 119.594 108.406 118.656 108.406C115.24 108.406 113 109.562 111.938 111.875V134H102.906V100.188H111.438L111.688 104.219C113.5 101.115 116.01 99.5625 119.219 99.5625C120.219 99.5625 121.156 99.6979 122.031 99.9688L121.906 108.656ZM139.5 122.969L145.781 100.188H155.219L143.812 134H135.188L123.781 100.188H133.219L139.5 122.969ZM168.75 134H159.688V100.188H168.75V134ZM159.156 91.4375C159.156 90.0833 159.604 88.9688 160.5 88.0938C161.417 87.2188 162.656 86.7812 164.219 86.7812C165.76 86.7812 166.99 87.2188 167.906 88.0938C168.823 88.9688 169.281 90.0833 169.281 91.4375C169.281 92.8125 168.812 93.9375 167.875 94.8125C166.958 95.6875 165.74 96.125 164.219 96.125C162.698 96.125 161.469 95.6875 160.531 94.8125C159.615 93.9375 159.156 92.8125 159.156 91.4375ZM190.281 127.344C191.948 127.344 193.302 126.885 194.344 125.969C195.385 125.052 195.927 123.833 195.969 122.312H204.438C204.417 124.604 203.792 126.708 202.562 128.625C201.333 130.521 199.646 132 197.5 133.062C195.375 134.104 193.021 134.625 190.438 134.625C185.604 134.625 181.792 133.094 179 130.031C176.208 126.948 174.812 122.698 174.812 117.281V116.688C174.812 111.479 176.198 107.323 178.969 104.219C181.74 101.115 185.542 99.5625 190.375 99.5625C194.604 99.5625 197.99 100.771 200.531 103.188C203.094 105.583 204.396 108.781 204.438 112.781H195.969C195.927 111.031 195.385 109.615 194.344 108.531C193.302 107.427 191.927 106.875 190.219 106.875C188.115 106.875 186.521 107.646 185.438 109.188C184.375 110.708 183.844 113.188 183.844 116.625V117.562C183.844 121.042 184.375 123.542 185.438 125.062C186.5 126.583 188.115 127.344 190.281 127.344ZM225.156 134.625C220.198 134.625 216.156 133.104 213.031 130.062C209.927 127.021 208.375 122.969 208.375 117.906V117.031C208.375 113.635 209.031 110.604 210.344 107.938C211.656 105.25 213.51 103.188 215.906 101.75C218.323 100.292 221.073 99.5625 224.156 99.5625C228.781 99.5625 232.417 101.021 235.062 103.938C237.729 106.854 239.062 110.99 239.062 116.344V120.031H217.531C217.823 122.24 218.698 124.01 220.156 125.344C221.635 126.677 223.5 127.344 225.75 127.344C229.229 127.344 231.948 126.083 233.906 123.562L238.344 128.531C236.99 130.448 235.156 131.948 232.844 133.031C230.531 134.094 227.969 134.625 225.156 134.625ZM224.125 106.875C222.333 106.875 220.875 107.479 219.75 108.688C218.646 109.896 217.938 111.625 217.625 113.875H230.188V113.156C230.146 111.156 229.604 109.615 228.562 108.531C227.521 107.427 226.042 106.875 224.125 106.875ZM262.531 124.656C262.531 123.552 261.979 122.688 260.875 122.062C259.792 121.417 258.042 120.844 255.625 120.344C247.583 118.656 243.562 115.24 243.562 110.094C243.562 107.094 244.802 104.594 247.281 102.594C249.781 100.573 253.042 99.5625 257.062 99.5625C261.354 99.5625 264.781 100.573 267.344 102.594C269.927 104.615 271.219 107.24 271.219 110.469H262.188C262.188 109.177 261.771 108.115 260.938 107.281C260.104 106.427 258.802 106 257.031 106C255.51 106 254.333 106.344 253.5 107.031C252.667 107.719 252.25 108.594 252.25 109.656C252.25 110.656 252.719 111.469 253.656 112.094C254.615 112.698 256.219 113.229 258.469 113.688C260.719 114.125 262.615 114.625 264.156 115.188C268.927 116.938 271.312 119.969 271.312 124.281C271.312 127.365 269.99 129.865 267.344 131.781C264.698 133.677 261.281 134.625 257.094 134.625C254.26 134.625 251.74 134.125 249.531 133.125C247.344 132.104 245.625 130.719 244.375 128.969C243.125 127.198 242.5 125.292 242.5 123.25H251.062C251.146 124.854 251.74 126.083 252.844 126.938C253.948 127.792 255.427 128.219 257.281 128.219C259.01 128.219 260.312 127.896 261.188 127.25C262.083 126.583 262.531 125.719 262.531 124.656Z" fill="white" fill-opacity="0.05"/>
<ellipse cx="27" cy="160.5" rx="16" ry="15.5" fill="#BBBBBB"/>
<ellipse cx="27.1553" cy="160.35" rx="12.7379" ry="12.3398" fill="#21209C"/>
</svg>
