<svg width="269" height="111" viewBox="0 0 269 111" fill="none" xmlns="http://www.w3.org/2000/svg">
<path d="M8.9375 1.1875L9.21875 4.96875C11.6146 2.03125 14.8542 0.5625 18.9375 0.5625C23.2917 0.5625 26.2812 2.28125 27.9062 5.71875C30.2812 2.28125 33.6667 0.5625 38.0625 0.5625C41.7292 0.5625 44.4583 1.63542 46.25 3.78125C48.0417 5.90625 48.9375 9.11458 48.9375 13.4062V35H39.875V13.4375C39.875 11.5208 39.5 10.125 38.75 9.25C38 8.35417 36.6771 7.90625 34.7812 7.90625C32.0729 7.90625 30.1979 9.19792 29.1562 11.7812L29.1875 35H20.1562V13.4688C20.1562 11.5104 19.7708 10.0938 19 9.21875C18.2292 8.34375 16.9167 7.90625 15.0625 7.90625C12.5 7.90625 10.6458 8.96875 9.5 11.0938V35H0.46875V1.1875H8.9375ZM68.5312 22.2188L74.7812 1.1875H84.4688L70.875 40.25L70.125 42.0312C68.1042 46.4479 64.7708 48.6562 60.125 48.6562C58.8125 48.6562 57.4792 48.4583 56.125 48.0625V41.2188L57.5 41.25C59.2083 41.25 60.4792 40.9896 61.3125 40.4688C62.1667 39.9479 62.8333 39.0833 63.3125 37.875L64.375 35.0938L52.5312 1.1875H62.25L68.5312 22.2188ZM50.6562 100.656C50.6562 99.5521 50.1042 98.6875 49 98.0625C47.9167 97.4167 46.1667 96.8438 43.75 96.3438C35.7083 94.6562 31.6875 91.2396 31.6875 86.0938C31.6875 83.0938 32.9271 80.5938 35.4062 78.5938C37.9062 76.5729 41.1667 75.5625 45.1875 75.5625C49.4792 75.5625 52.9062 76.5729 55.4688 78.5938C58.0521 80.6146 59.3438 83.2396 59.3438 86.4688H50.3125C50.3125 85.1771 49.8958 84.1146 49.0625 83.2812C48.2292 82.4271 46.9271 82 45.1562 82C43.6354 82 42.4583 82.3438 41.625 83.0312C40.7917 83.7188 40.375 84.5938 40.375 85.6562C40.375 86.6562 40.8438 87.4688 41.7812 88.0938C42.7396 88.6979 44.3438 89.2292 46.5938 89.6875C48.8438 90.125 50.7396 90.625 52.2812 91.1875C57.0521 92.9375 59.4375 95.9688 59.4375 100.281C59.4375 103.365 58.1146 105.865 55.4688 107.781C52.8229 109.677 49.4062 110.625 45.2188 110.625C42.3854 110.625 39.8646 110.125 37.6562 109.125C35.4688 108.104 33.75 106.719 32.5 104.969C31.25 103.198 30.625 101.292 30.625 99.25H39.1875C39.2708 100.854 39.8646 102.083 40.9688 102.938C42.0729 103.792 43.5521 104.219 45.4062 104.219C47.1354 104.219 48.4375 103.896 49.3125 103.25C50.2083 102.583 50.6562 101.719 50.6562 100.656ZM80.8438 110.625C75.8854 110.625 71.8438 109.104 68.7188 106.062C65.6146 103.021 64.0625 98.9688 64.0625 93.9062V93.0312C64.0625 89.6354 64.7188 86.6042 66.0312 83.9375C67.3438 81.25 69.1979 79.1875 71.5938 77.75C74.0104 76.2917 76.7604 75.5625 79.8438 75.5625C84.4688 75.5625 88.1042 77.0208 90.75 79.9375C93.4167 82.8542 94.75 86.9896 94.75 92.3438V96.0312H73.2188C73.5104 98.2396 74.3854 100.01 75.8438 101.344C77.3229 102.677 79.1875 103.344 81.4375 103.344C84.9167 103.344 87.6354 102.083 89.5938 99.5625L94.0312 104.531C92.6771 106.448 90.8438 107.948 88.5312 109.031C86.2188 110.094 83.6562 110.625 80.8438 110.625ZM79.8125 82.875C78.0208 82.875 76.5625 83.4792 75.4375 84.6875C74.3333 85.8958 73.625 87.625 73.3125 89.875H85.875V89.1562C85.8333 87.1562 85.2917 85.6146 84.25 84.5312C83.2083 83.4271 81.7292 82.875 79.8125 82.875ZM118.906 84.6562C117.677 84.4896 116.594 84.4062 115.656 84.4062C112.24 84.4062 110 85.5625 108.938 87.875V110H99.9062V76.1875H108.438L108.688 80.2188C110.5 77.1146 113.01 75.5625 116.219 75.5625C117.219 75.5625 118.156 75.6979 119.031 75.9688L118.906 84.6562ZM136.5 98.9688L142.781 76.1875H152.219L140.812 110H132.188L120.781 76.1875H130.219L136.5 98.9688ZM165.75 110H156.688V76.1875H165.75V110ZM156.156 67.4375C156.156 66.0833 156.604 64.9688 157.5 64.0938C158.417 63.2188 159.656 62.7812 161.219 62.7812C162.76 62.7812 163.99 63.2188 164.906 64.0938C165.823 64.9688 166.281 66.0833 166.281 67.4375C166.281 68.8125 165.812 69.9375 164.875 70.8125C163.958 71.6875 162.74 72.125 161.219 72.125C159.698 72.125 158.469 71.6875 157.531 70.8125C156.615 69.9375 156.156 68.8125 156.156 67.4375ZM187.281 103.344C188.948 103.344 190.302 102.885 191.344 101.969C192.385 101.052 192.927 99.8333 192.969 98.3125H201.438C201.417 100.604 200.792 102.708 199.562 104.625C198.333 106.521 196.646 108 194.5 109.062C192.375 110.104 190.021 110.625 187.438 110.625C182.604 110.625 178.792 109.094 176 106.031C173.208 102.948 171.812 98.6979 171.812 93.2812V92.6875C171.812 87.4792 173.198 83.3229 175.969 80.2188C178.74 77.1146 182.542 75.5625 187.375 75.5625C191.604 75.5625 194.99 76.7708 197.531 79.1875C200.094 81.5833 201.396 84.7812 201.438 88.7812H192.969C192.927 87.0312 192.385 85.6146 191.344 84.5312C190.302 83.4271 188.927 82.875 187.219 82.875C185.115 82.875 183.521 83.6458 182.438 85.1875C181.375 86.7083 180.844 89.1875 180.844 92.625V93.5625C180.844 97.0417 181.375 99.5417 182.438 101.062C183.5 102.583 185.115 103.344 187.281 103.344ZM222.156 110.625C217.198 110.625 213.156 109.104 210.031 106.062C206.927 103.021 205.375 98.9688 205.375 93.9062V93.0312C205.375 89.6354 206.031 86.6042 207.344 83.9375C208.656 81.25 210.51 79.1875 212.906 77.75C215.323 76.2917 218.073 75.5625 221.156 75.5625C225.781 75.5625 229.417 77.0208 232.062 79.9375C234.729 82.8542 236.062 86.9896 236.062 92.3438V96.0312H214.531C214.823 98.2396 215.698 100.01 217.156 101.344C218.635 102.677 220.5 103.344 222.75 103.344C226.229 103.344 228.948 102.083 230.906 99.5625L235.344 104.531C233.99 106.448 232.156 107.948 229.844 109.031C227.531 110.094 224.969 110.625 222.156 110.625ZM221.125 82.875C219.333 82.875 217.875 83.4792 216.75 84.6875C215.646 85.8958 214.938 87.625 214.625 89.875H227.188V89.1562C227.146 87.1562 226.604 85.6146 225.562 84.5312C224.521 83.4271 223.042 82.875 221.125 82.875ZM259.531 100.656C259.531 99.5521 258.979 98.6875 257.875 98.0625C256.792 97.4167 255.042 96.8438 252.625 96.3438C244.583 94.6562 240.562 91.2396 240.562 86.0938C240.562 83.0938 241.802 80.5938 244.281 78.5938C246.781 76.5729 250.042 75.5625 254.062 75.5625C258.354 75.5625 261.781 76.5729 264.344 78.5938C266.927 80.6146 268.219 83.2396 268.219 86.4688H259.188C259.188 85.1771 258.771 84.1146 257.938 83.2812C257.104 82.4271 255.802 82 254.031 82C252.51 82 251.333 82.3438 250.5 83.0312C249.667 83.7188 249.25 84.5938 249.25 85.6562C249.25 86.6562 249.719 87.4688 250.656 88.0938C251.615 88.6979 253.219 89.2292 255.469 89.6875C257.719 90.125 259.615 90.625 261.156 91.1875C265.927 92.9375 268.312 95.9688 268.312 100.281C268.312 103.365 266.99 105.865 264.344 107.781C261.698 109.677 258.281 110.625 254.094 110.625C251.26 110.625 248.74 110.125 246.531 109.125C244.344 108.104 242.625 106.719 241.375 104.969C240.125 103.198 239.5 101.292 239.5 99.25H248.062C248.146 100.854 248.74 102.083 249.844 102.938C250.948 103.792 252.427 104.219 254.281 104.219C256.01 104.219 257.312 103.896 258.188 103.25C259.083 102.583 259.531 101.719 259.531 100.656Z" fill="white" fill-opacity="0.05"/>
</svg>
