<svg width="899" height="307" viewBox="0 0 899 307" fill="none" xmlns="http://www.w3.org/2000/svg">
<ellipse cx="166.154" cy="281.17" rx="28.6813" ry="25.83" fill="white"/>
<ellipse cx="166.154" cy="281.043" rx="19.6672" ry="17.8531" fill="#21209C"/>
<path d="M22.0781 38.9219H5.27344V115H23.0625V58.0469C23.2969 57.4375 23.5547 56.875 23.8359 56.3594C24.1172 55.8438 24.4453 55.3984 24.8203 55.0234C25.3359 54.5078 25.9219 54.1094 26.5781 53.8281C27.2344 53.5469 27.9844 53.4062 28.8281 53.4062C29.5781 53.4062 30.2812 53.5234 30.9375 53.7578C31.5938 53.9453 32.1797 54.2969 32.6953 54.8125C33.1641 55.3281 33.5391 56.0547 33.8203 56.9922C34.1016 57.9297 34.2422 59.125 34.2422 60.5781V115H51.4688V58.8906C51.4688 58.3281 51.4688 57.8828 51.4688 57.5547C51.4688 57.2266 51.4688 57.0156 51.4688 56.9219C51.7031 56.4062 51.9844 55.9609 52.3125 55.5859C52.6406 55.1641 53.0156 54.7891 53.4375 54.4609C53.9531 54.1328 54.4922 53.875 55.0547 53.6875C55.6641 53.5 56.3438 53.4062 57.0938 53.4062C57.7969 53.4062 58.4766 53.5234 59.1328 53.7578C59.8359 53.9453 60.4453 54.2969 60.9609 54.8125C61.4766 55.375 61.875 56.125 62.1562 57.0625C62.4844 58 62.6484 59.1953 62.6484 60.6484V115H80.4375V60.7188C80.4375 56.5 80.0156 52.9375 79.1719 50.0312C78.375 47.0781 77.25 44.6641 75.7969 42.7891C74.2969 40.9609 72.5391 39.625 70.5234 38.7812C68.5547 37.9375 66.4219 37.5156 64.125 37.5156C62.2969 37.5156 60.6094 37.75 59.0625 38.2188C57.5156 38.6875 56.1328 39.3438 54.9141 40.1875C53.9297 40.8437 53.0156 41.6406 52.1719 42.5781C51.375 43.4688 50.6484 44.4766 49.9922 45.6016C49.5703 44.4297 49.0547 43.3984 48.4453 42.5078C47.8828 41.5703 47.2031 40.7734 46.4062 40.1172C45.375 39.2266 44.1562 38.5703 42.75 38.1484C41.3438 37.7266 39.75 37.5156 37.9688 37.5156C34.3125 37.5156 31.1953 38.4766 28.6172 40.3984C26.0859 42.2734 24.0938 44.8516 22.6406 48.1328L22.0781 38.9219ZM108.422 145.727C112.359 145.727 115.758 145.07 118.617 143.758C121.523 142.445 123.984 140.828 126 138.906C128.016 136.984 129.68 134.898 130.992 132.648C132.352 130.398 133.453 128.312 134.297 126.391L172.898 38.9219H151.312L133.945 83.6406L131.062 91.2344L128.953 83.5L111.516 38.9219H90.1406L122.344 111.766L117.844 120.133C117.281 121.164 116.789 121.961 116.367 122.523C115.992 123.086 115.383 123.93 114.539 125.055C113.695 126.18 112.664 127.211 111.445 128.148C110.273 129.133 108.914 129.625 107.367 129.625C106.617 129.625 105.609 129.578 104.344 129.484C103.125 129.438 102.117 129.414 101.32 129.414L98.9297 144.32C100.617 144.789 102.141 145.141 103.5 145.375C104.906 145.609 106.547 145.727 108.422 145.727Z" fill="white" fill-opacity="0.05"/>
<path d="M98.5526 245.132C98.5526 246.304 98.2479 247.382 97.6385 248.367C97.076 249.351 96.2089 250.218 95.037 250.968C93.8182 251.718 92.2479 252.328 90.326 252.796C88.451 253.218 86.2479 253.429 83.7167 253.429C81.6073 253.429 79.5448 253.218 77.5292 252.796C75.5604 252.374 73.8026 251.695 72.2557 250.757C70.7089 249.867 69.4432 248.695 68.4589 247.242C67.4745 245.742 66.912 243.96 66.7714 241.898H48.1385C48.1385 244.992 48.8885 248.085 50.3885 251.179C51.9354 254.226 54.1854 256.945 57.1385 259.335C60.0917 261.773 63.7479 263.742 68.1073 265.242C72.5135 266.742 77.576 267.492 83.2948 267.492C88.4979 267.492 93.2089 266.929 97.4276 265.804C101.646 264.632 105.256 263.015 108.256 260.953C111.209 258.89 113.482 256.453 115.076 253.64C116.717 250.781 117.537 247.664 117.537 244.289C117.537 240.632 116.717 237.492 115.076 234.867C113.482 232.195 111.256 229.921 108.396 228.046C105.537 226.218 102.139 224.718 98.201 223.546C94.2635 222.374 89.9979 221.414 85.4042 220.664C82.2167 220.195 79.5917 219.656 77.5292 219.046C75.4667 218.39 73.8495 217.664 72.6776 216.867C71.4589 216.117 70.6151 215.273 70.1464 214.335C69.6776 213.351 69.4432 212.296 69.4432 211.171C69.4432 210.046 69.701 208.992 70.2167 208.007C70.7792 206.976 71.576 206.085 72.6073 205.335C73.7323 204.492 75.1854 203.835 76.9667 203.367C78.7479 202.898 80.8339 202.664 83.2245 202.664C86.037 202.664 88.4276 203.015 90.3964 203.718C92.412 204.421 94.0057 205.359 95.1776 206.531C96.0214 207.421 96.6542 208.429 97.076 209.554C97.4979 210.632 97.7089 211.804 97.7089 213.07H117.256C117.256 209.554 116.482 206.296 114.935 203.296C113.389 200.296 111.162 197.695 108.256 195.492C105.303 193.335 101.717 191.648 97.4979 190.429C93.2792 189.164 88.5214 188.531 83.2245 188.531C78.162 188.531 73.6151 189.164 69.5839 190.429C65.5526 191.695 62.1307 193.406 59.3182 195.562C56.5057 197.718 54.3495 200.226 52.8495 203.085C51.3495 205.945 50.5995 208.945 50.5995 212.085C50.5995 215.32 51.326 218.179 52.7792 220.664C54.2792 223.148 56.3417 225.328 58.9667 227.203C61.5917 229.124 64.7323 230.765 68.3885 232.124C72.0917 233.437 76.1698 234.539 80.6229 235.429C84.1385 236.085 87.0448 236.742 89.3417 237.398C91.6385 238.054 93.4901 238.757 94.8964 239.507C96.2557 240.304 97.1932 241.148 97.7089 242.039C98.2714 242.929 98.5526 243.96 98.5526 245.132ZM167.833 267.421C175.192 267.421 181.567 265.992 186.958 263.132C192.349 260.273 196.286 257.085 198.77 253.57L188.997 243.023C186.747 245.929 183.817 248.109 180.208 249.562C176.599 251.015 172.872 251.742 169.028 251.742C166.309 251.742 163.802 251.32 161.505 250.476C159.208 249.632 157.169 248.437 155.388 246.89C153.653 245.39 152.27 243.726 151.239 241.898C150.208 240.023 149.364 237.562 148.708 234.515V234.304H200.317V226.007C200.317 220.429 199.544 215.343 197.997 210.749C196.45 206.109 194.2 202.148 191.247 198.867C188.247 195.585 184.591 193.054 180.278 191.273C176.013 189.445 171.138 188.531 165.653 188.531C160.356 188.531 155.458 189.492 150.958 191.414C146.458 193.335 142.567 196.031 139.286 199.499C136.005 202.968 133.45 207.117 131.622 211.945C129.794 216.726 128.88 222.023 128.88 227.835V230.648C128.88 235.757 129.794 240.562 131.622 245.062C133.497 249.515 136.145 253.382 139.567 256.664C142.989 259.992 147.091 262.617 151.872 264.539C156.653 266.46 161.974 267.421 167.833 267.421ZM165.513 204.351C167.997 204.351 170.177 204.749 172.052 205.546C173.974 206.296 175.591 207.328 176.903 208.64C178.216 209.999 179.247 211.593 179.997 213.421C180.747 215.249 181.122 217.195 181.122 219.257V220.804H149.059C149.528 218.32 150.231 216.07 151.169 214.054C152.106 212.039 153.278 210.304 154.684 208.851C156.044 207.398 157.638 206.296 159.466 205.546C161.294 204.749 163.309 204.351 165.513 204.351ZM266.996 188.531C261.887 188.531 257.176 189.773 252.863 192.257C248.551 194.695 244.848 198.07 241.754 202.382L241.613 200.695L240.84 189.937H222.629V266.015H242.176V220.312C243.066 218.156 244.191 216.281 245.551 214.687C246.91 213.093 248.551 211.781 250.473 210.749C252.066 209.859 253.871 209.203 255.887 208.781C257.949 208.312 260.246 208.078 262.777 208.078C265.215 208.078 267.769 208.242 270.441 208.57C273.16 208.851 275.809 209.296 278.387 209.906L281.269 190.429C279.723 189.96 277.684 189.539 275.152 189.164C272.668 188.742 269.949 188.531 266.996 188.531ZM317.995 266.015H336.347L365.245 189.937H344.854L328.19 243.585L327.136 248.929L326.081 243.585L309.347 189.937H288.956L317.995 266.015ZM380.455 189.937V205.898H402.111V250.124H380.455V266.015H442.471V250.124H421.869V189.937H380.455ZM400.705 170.46C400.705 171.96 400.963 173.367 401.479 174.679C402.041 175.945 402.814 177.023 403.799 177.914C404.783 178.851 405.955 179.578 407.314 180.093C408.721 180.609 410.268 180.867 411.955 180.867C415.424 180.867 418.166 179.906 420.182 177.984C422.244 176.015 423.275 173.507 423.275 170.46C423.275 167.414 422.244 164.929 420.182 163.007C418.166 161.039 415.424 160.054 411.955 160.054C410.268 160.054 408.721 160.312 407.314 160.828C405.955 161.343 404.783 162.046 403.799 162.937C402.814 163.874 402.041 164.999 401.479 166.312C400.963 167.578 400.705 168.96 400.705 170.46ZM490.376 251.812C487.235 251.812 484.634 251.179 482.571 249.914C480.556 248.648 478.962 246.96 477.79 244.851C476.571 242.789 475.728 240.398 475.259 237.679C474.79 234.914 474.556 232.054 474.556 229.101V226.992C474.556 224.085 474.79 221.273 475.259 218.554C475.774 215.835 476.642 213.421 477.86 211.312C479.032 209.203 480.626 207.515 482.642 206.249C484.657 204.984 487.212 204.351 490.306 204.351C492.415 204.351 494.36 204.726 496.142 205.476C497.923 206.179 499.446 207.14 500.712 208.359C501.978 209.578 502.939 211.031 503.595 212.718C504.251 214.406 504.532 216.187 504.439 218.062H522.86C522.954 213.562 522.204 209.507 520.61 205.898C519.017 202.242 516.79 199.124 513.931 196.546C511.024 194.015 507.579 192.046 503.595 190.64C499.61 189.234 495.274 188.531 490.587 188.531C484.728 188.531 479.571 189.539 475.118 191.554C470.712 193.57 467.009 196.312 464.009 199.781C461.009 203.249 458.759 207.328 457.259 212.015C455.759 216.656 455.009 221.648 455.009 226.992V229.101C455.009 234.445 455.759 239.46 457.259 244.148C458.806 248.789 461.079 252.843 464.079 256.312C467.032 259.781 470.735 262.523 475.189 264.539C479.642 266.507 484.821 267.492 490.728 267.492C495.087 267.492 499.212 266.812 503.103 265.453C507.04 264.046 510.485 262.124 513.439 259.687C516.392 257.249 518.712 254.343 520.399 250.968C522.134 247.593 522.954 243.937 522.86 239.999H504.439C504.532 241.781 504.204 243.398 503.454 244.851C502.751 246.304 501.743 247.546 500.431 248.578C499.118 249.609 497.595 250.406 495.86 250.968C494.126 251.531 492.298 251.812 490.376 251.812ZM575.055 267.421C582.414 267.421 588.789 265.992 594.18 263.132C599.57 260.273 603.508 257.085 605.992 253.57L596.219 243.023C593.969 245.929 591.039 248.109 587.43 249.562C583.82 251.015 580.094 251.742 576.25 251.742C573.531 251.742 571.024 251.32 568.727 250.476C566.43 249.632 564.391 248.437 562.609 246.89C560.875 245.39 559.492 243.726 558.461 241.898C557.43 240.023 556.586 237.562 555.93 234.515V234.304H607.539V226.007C607.539 220.429 606.766 215.343 605.219 210.749C603.672 206.109 601.422 202.148 598.469 198.867C595.469 195.585 591.813 193.054 587.5 191.273C583.234 189.445 578.359 188.531 572.875 188.531C567.578 188.531 562.68 189.492 558.18 191.414C553.68 193.335 549.789 196.031 546.508 199.499C543.227 202.968 540.672 207.117 538.844 211.945C537.016 216.726 536.102 222.023 536.102 227.835V230.648C536.102 235.757 537.016 240.562 538.844 245.062C540.719 249.515 543.367 253.382 546.789 256.664C550.211 259.992 554.313 262.617 559.094 264.539C563.875 266.46 569.195 267.421 575.055 267.421ZM572.734 204.351C575.219 204.351 577.399 204.749 579.274 205.546C581.195 206.296 582.813 207.328 584.125 208.64C585.438 209.999 586.469 211.593 587.219 213.421C587.969 215.249 588.344 217.195 588.344 219.257V220.804H556.281C556.75 218.32 557.453 216.07 558.391 214.054C559.328 212.039 560.5 210.304 561.906 208.851C563.266 207.398 564.859 206.296 566.688 205.546C568.516 204.749 570.531 204.351 572.734 204.351ZM668.663 245.132C668.663 246.304 668.359 247.382 667.749 248.367C667.187 249.351 666.319 250.218 665.148 250.968C663.929 251.718 662.359 252.328 660.437 252.796C658.562 253.218 656.359 253.429 653.827 253.429C651.718 253.429 649.655 253.218 647.64 252.796C645.671 252.374 643.913 251.695 642.366 250.757C640.819 249.867 639.554 248.695 638.569 247.242C637.585 245.742 637.023 243.96 636.882 241.898H618.249C618.249 244.992 618.999 248.085 620.499 251.179C622.046 254.226 624.296 256.945 627.249 259.335C630.202 261.773 633.859 263.742 638.218 265.242C642.624 266.742 647.687 267.492 653.405 267.492C658.609 267.492 663.319 266.929 667.538 265.804C671.757 264.632 675.366 263.015 678.366 260.953C681.319 258.89 683.593 256.453 685.187 253.64C686.827 250.781 687.648 247.664 687.648 244.289C687.648 240.632 686.827 237.492 685.187 234.867C683.593 232.195 681.366 229.921 678.507 228.046C675.648 226.218 672.249 224.718 668.312 223.546C664.374 222.374 660.109 221.414 655.515 220.664C652.327 220.195 649.702 219.656 647.64 219.046C645.577 218.39 643.96 217.664 642.788 216.867C641.569 216.117 640.726 215.273 640.257 214.335C639.788 213.351 639.554 212.296 639.554 211.171C639.554 210.046 639.812 208.992 640.327 208.007C640.89 206.976 641.687 206.085 642.718 205.335C643.843 204.492 645.296 203.835 647.077 203.367C648.859 202.898 650.944 202.664 653.335 202.664C656.148 202.664 658.538 203.015 660.507 203.718C662.523 204.421 664.116 205.359 665.288 206.531C666.132 207.421 666.765 208.429 667.187 209.554C667.609 210.632 667.819 211.804 667.819 213.07H687.366C687.366 209.554 686.593 206.296 685.046 203.296C683.499 200.296 681.273 197.695 678.366 195.492C675.413 193.335 671.827 191.648 667.609 190.429C663.39 189.164 658.632 188.531 653.335 188.531C648.273 188.531 643.726 189.164 639.694 190.429C635.663 191.695 632.241 193.406 629.429 195.562C626.616 197.718 624.46 200.226 622.96 203.085C621.46 205.945 620.71 208.945 620.71 212.085C620.71 215.32 621.437 218.179 622.89 220.664C624.39 223.148 626.452 225.328 629.077 227.203C631.702 229.124 634.843 230.765 638.499 232.124C642.202 233.437 646.28 234.539 650.734 235.429C654.249 236.085 657.155 236.742 659.452 237.398C661.749 238.054 663.601 238.757 665.007 239.507C666.366 240.304 667.304 241.148 667.819 242.039C668.382 242.929 668.663 243.96 668.663 245.132Z" fill="white" fill-opacity="0.05"/>
</svg>
