<svg width="732" height="577" viewBox="0 0 732 577" fill="none" xmlns="http://www.w3.org/2000/svg">
<ellipse cx="85" cy="548.5" rx="29" ry="28.5" fill="white"/>
<ellipse cx="85" cy="548.36" rx="19.8857" ry="19.6985" fill="#21209C"/>
<path d="M22.0781 359.922H5.27344V436H23.0625V379.047C23.2969 378.438 23.5547 377.875 23.8359 377.359C24.1172 376.844 24.4453 376.398 24.8203 376.023C25.3359 375.508 25.9219 375.109 26.5781 374.828C27.2344 374.547 27.9844 374.406 28.8281 374.406C29.5781 374.406 30.2812 374.523 30.9375 374.758C31.5938 374.945 32.1797 375.297 32.6953 375.812C33.1641 376.328 33.5391 377.055 33.8203 377.992C34.1016 378.93 34.2422 380.125 34.2422 381.578V436H51.4688V379.891C51.4688 379.328 51.4688 378.883 51.4688 378.555C51.4688 378.227 51.4688 378.016 51.4688 377.922C51.7031 377.406 51.9844 376.961 52.3125 376.586C52.6406 376.164 53.0156 375.789 53.4375 375.461C53.9531 375.133 54.4922 374.875 55.0547 374.688C55.6641 374.5 56.3438 374.406 57.0938 374.406C57.7969 374.406 58.4766 374.523 59.1328 374.758C59.8359 374.945 60.4453 375.297 60.9609 375.812C61.4766 376.375 61.875 377.125 62.1562 378.062C62.4844 379 62.6484 380.195 62.6484 381.648V436H80.4375V381.719C80.4375 377.5 80.0156 373.938 79.1719 371.031C78.375 368.078 77.25 365.664 75.7969 363.789C74.2969 361.961 72.5391 360.625 70.5234 359.781C68.5547 358.938 66.4219 358.516 64.125 358.516C62.2969 358.516 60.6094 358.75 59.0625 359.219C57.5156 359.688 56.1328 360.344 54.9141 361.188C53.9297 361.844 53.0156 362.641 52.1719 363.578C51.375 364.469 50.6484 365.477 49.9922 366.602C49.5703 365.43 49.0547 364.398 48.4453 363.508C47.8828 362.57 47.2031 361.773 46.4062 361.117C45.375 360.227 44.1562 359.57 42.75 359.148C41.3438 358.727 39.75 358.516 37.9688 358.516C34.3125 358.516 31.1953 359.477 28.6172 361.398C26.0859 363.273 24.0938 365.852 22.6406 369.133L22.0781 359.922ZM108.422 466.727C112.359 466.727 115.758 466.07 118.617 464.758C121.523 463.445 123.984 461.828 126 459.906C128.016 457.984 129.68 455.898 130.992 453.648C132.352 451.398 133.453 449.312 134.297 447.391L172.898 359.922H151.312L133.945 404.641L131.062 412.234L128.953 404.5L111.516 359.922H90.1406L122.344 432.766L117.844 441.133C117.281 442.164 116.789 442.961 116.367 443.523C115.992 444.086 115.383 444.93 114.539 446.055C113.695 447.18 112.664 448.211 111.445 449.148C110.273 450.133 108.914 450.625 107.367 450.625C106.617 450.625 105.609 450.578 104.344 450.484C103.125 450.438 102.117 450.414 101.32 450.414L98.9297 465.32C100.617 465.789 102.141 466.141 103.5 466.375C104.906 466.609 106.547 466.727 108.422 466.727Z" fill="white" fill-opacity="0.05"/>
<path d="M98.9922 528.117C98.9922 529.289 98.6875 530.367 98.0781 531.352C97.5156 532.336 96.6484 533.203 95.4766 533.953C94.2578 534.703 92.6875 535.312 90.7656 535.781C88.8906 536.203 86.6875 536.414 84.1562 536.414C82.0469 536.414 79.9844 536.203 77.9688 535.781C76 535.359 74.2422 534.68 72.6953 533.742C71.1484 532.852 69.8828 531.68 68.8984 530.227C67.9141 528.727 67.3516 526.945 67.2109 524.883H48.5781C48.5781 527.977 49.3281 531.07 50.8281 534.164C52.375 537.211 54.625 539.93 57.5781 542.32C60.5312 544.758 64.1875 546.727 68.5469 548.227C72.9531 549.727 78.0156 550.477 83.7344 550.477C88.9375 550.477 93.6484 549.914 97.8672 548.789C102.086 547.617 105.695 546 108.695 543.938C111.648 541.875 113.922 539.438 115.516 536.625C117.156 533.766 117.977 530.648 117.977 527.273C117.977 523.617 117.156 520.477 115.516 517.852C113.922 515.18 111.695 512.906 108.836 511.031C105.977 509.203 102.578 507.703 98.6406 506.531C94.7031 505.359 90.4375 504.398 85.8438 503.648C82.6562 503.18 80.0312 502.641 77.9688 502.031C75.9062 501.375 74.2891 500.648 73.1172 499.852C71.8984 499.102 71.0547 498.258 70.5859 497.32C70.1172 496.336 69.8828 495.281 69.8828 494.156C69.8828 493.031 70.1406 491.977 70.6562 490.992C71.2188 489.961 72.0156 489.07 73.0469 488.32C74.1719 487.477 75.625 486.82 77.4062 486.352C79.1875 485.883 81.2734 485.648 83.6641 485.648C86.4766 485.648 88.8672 486 90.8359 486.703C92.8516 487.406 94.4453 488.344 95.6172 489.516C96.4609 490.406 97.0938 491.414 97.5156 492.539C97.9375 493.617 98.1484 494.789 98.1484 496.055H117.695C117.695 492.539 116.922 489.281 115.375 486.281C113.828 483.281 111.602 480.68 108.695 478.477C105.742 476.32 102.156 474.633 97.9375 473.414C93.7188 472.148 88.9609 471.516 83.6641 471.516C78.6016 471.516 74.0547 472.148 70.0234 473.414C65.9922 474.68 62.5703 476.391 59.7578 478.547C56.9453 480.703 54.7891 483.211 53.2891 486.07C51.7891 488.93 51.0391 491.93 51.0391 495.07C51.0391 498.305 51.7656 501.164 53.2188 503.648C54.7188 506.133 56.7812 508.312 59.4062 510.188C62.0312 512.109 65.1719 513.75 68.8281 515.109C72.5312 516.422 76.6094 517.523 81.0625 518.414C84.5781 519.07 87.4844 519.727 89.7812 520.383C92.0781 521.039 93.9297 521.742 95.3359 522.492C96.6953 523.289 97.6328 524.133 98.1484 525.023C98.7109 525.914 98.9922 526.945 98.9922 528.117ZM173.312 550.406C180.672 550.406 187.047 548.977 192.438 546.117C197.828 543.258 201.766 540.07 204.25 536.555L194.477 526.008C192.227 528.914 189.297 531.094 185.688 532.547C182.078 534 178.352 534.727 174.508 534.727C171.789 534.727 169.281 534.305 166.984 533.461C164.688 532.617 162.648 531.422 160.867 529.875C159.133 528.375 157.75 526.711 156.719 524.883C155.688 523.008 154.844 520.547 154.188 517.5V517.289H205.797V508.992C205.797 503.414 205.023 498.328 203.477 493.734C201.93 489.094 199.68 485.133 196.727 481.852C193.727 478.57 190.07 476.039 185.758 474.258C181.492 472.43 176.617 471.516 171.133 471.516C165.836 471.516 160.938 472.477 156.438 474.398C151.938 476.32 148.047 479.016 144.766 482.484C141.484 485.953 138.93 490.102 137.102 494.93C135.273 499.711 134.359 505.008 134.359 510.82V513.633C134.359 518.742 135.273 523.547 137.102 528.047C138.977 532.5 141.625 536.367 145.047 539.648C148.469 542.977 152.57 545.602 157.352 547.523C162.133 549.445 167.453 550.406 173.312 550.406ZM170.992 487.336C173.477 487.336 175.656 487.734 177.531 488.531C179.453 489.281 181.07 490.312 182.383 491.625C183.695 492.984 184.727 494.578 185.477 496.406C186.227 498.234 186.602 500.18 186.602 502.242V503.789H154.539C155.008 501.305 155.711 499.055 156.648 497.039C157.586 495.023 158.758 493.289 160.164 491.836C161.523 490.383 163.117 489.281 164.945 488.531C166.773 487.734 168.789 487.336 170.992 487.336ZM277.516 471.516C272.406 471.516 267.695 472.758 263.383 475.242C259.07 477.68 255.367 481.055 252.273 485.367L252.133 483.68L251.359 472.922H233.148V549H252.695V503.297C253.586 501.141 254.711 499.266 256.07 497.672C257.43 496.078 259.07 494.766 260.992 493.734C262.586 492.844 264.391 492.188 266.406 491.766C268.469 491.297 270.766 491.062 273.297 491.062C275.734 491.062 278.289 491.227 280.961 491.555C283.68 491.836 286.328 492.281 288.906 492.891L291.789 473.414C290.242 472.945 288.203 472.523 285.672 472.148C283.188 471.727 280.469 471.516 277.516 471.516ZM333.555 549H351.906L380.805 472.922H360.414L343.75 526.57L342.695 531.914L341.641 526.57L324.906 472.922H304.516L333.555 549ZM401.055 472.922V488.883H422.711V533.109H401.055V549H463.07V533.109H442.469V472.922H401.055ZM421.305 453.445C421.305 454.945 421.562 456.352 422.078 457.664C422.641 458.93 423.414 460.008 424.398 460.898C425.383 461.836 426.555 462.562 427.914 463.078C429.32 463.594 430.867 463.852 432.555 463.852C436.023 463.852 438.766 462.891 440.781 460.969C442.844 459 443.875 456.492 443.875 453.445C443.875 450.398 442.844 447.914 440.781 445.992C438.766 444.023 436.023 443.039 432.555 443.039C430.867 443.039 429.32 443.297 427.914 443.812C426.555 444.328 425.383 445.031 424.398 445.922C423.414 446.859 422.641 447.984 422.078 449.297C421.562 450.562 421.305 451.945 421.305 453.445ZM516.016 534.797C512.875 534.797 510.273 534.164 508.211 532.898C506.195 531.633 504.602 529.945 503.43 527.836C502.211 525.773 501.367 523.383 500.898 520.664C500.43 517.898 500.195 515.039 500.195 512.086V509.977C500.195 507.07 500.43 504.258 500.898 501.539C501.414 498.82 502.281 496.406 503.5 494.297C504.672 492.188 506.266 490.5 508.281 489.234C510.297 487.969 512.852 487.336 515.945 487.336C518.055 487.336 520 487.711 521.781 488.461C523.562 489.164 525.086 490.125 526.352 491.344C527.617 492.562 528.578 494.016 529.234 495.703C529.891 497.391 530.172 499.172 530.078 501.047H548.5C548.594 496.547 547.844 492.492 546.25 488.883C544.656 485.227 542.43 482.109 539.57 479.531C536.664 477 533.219 475.031 529.234 473.625C525.25 472.219 520.914 471.516 516.227 471.516C510.367 471.516 505.211 472.523 500.758 474.539C496.352 476.555 492.648 479.297 489.648 482.766C486.648 486.234 484.398 490.312 482.898 495C481.398 499.641 480.648 504.633 480.648 509.977V512.086C480.648 517.43 481.398 522.445 482.898 527.133C484.445 531.773 486.719 535.828 489.719 539.297C492.672 542.766 496.375 545.508 500.828 547.523C505.281 549.492 510.461 550.477 516.367 550.477C520.727 550.477 524.852 549.797 528.742 548.438C532.68 547.031 536.125 545.109 539.078 542.672C542.031 540.234 544.352 537.328 546.039 533.953C547.773 530.578 548.594 526.922 548.5 522.984H530.078C530.172 524.766 529.844 526.383 529.094 527.836C528.391 529.289 527.383 530.531 526.07 531.562C524.758 532.594 523.234 533.391 521.5 533.953C519.766 534.516 517.938 534.797 516.016 534.797ZM605.734 550.406C613.094 550.406 619.469 548.977 624.859 546.117C630.25 543.258 634.188 540.07 636.672 536.555L626.898 526.008C624.648 528.914 621.719 531.094 618.109 532.547C614.5 534 610.773 534.727 606.93 534.727C604.211 534.727 601.703 534.305 599.406 533.461C597.109 532.617 595.07 531.422 593.289 529.875C591.555 528.375 590.172 526.711 589.141 524.883C588.109 523.008 587.266 520.547 586.609 517.5V517.289H638.219V508.992C638.219 503.414 637.445 498.328 635.898 493.734C634.352 489.094 632.102 485.133 629.148 481.852C626.148 478.57 622.492 476.039 618.18 474.258C613.914 472.43 609.039 471.516 603.555 471.516C598.258 471.516 593.359 472.477 588.859 474.398C584.359 476.32 580.469 479.016 577.188 482.484C573.906 485.953 571.352 490.102 569.523 494.93C567.695 499.711 566.781 505.008 566.781 510.82V513.633C566.781 518.742 567.695 523.547 569.523 528.047C571.398 532.5 574.047 536.367 577.469 539.648C580.891 542.977 584.992 545.602 589.773 547.523C594.555 549.445 599.875 550.406 605.734 550.406ZM603.414 487.336C605.898 487.336 608.078 487.734 609.953 488.531C611.875 489.281 613.492 490.312 614.805 491.625C616.117 492.984 617.148 494.578 617.898 496.406C618.648 498.234 619.023 500.18 619.023 502.242V503.789H586.961C587.43 501.305 588.133 499.055 589.07 497.039C590.008 495.023 591.18 493.289 592.586 491.836C593.945 490.383 595.539 489.281 597.367 488.531C599.195 487.734 601.211 487.336 603.414 487.336ZM704.383 528.117C704.383 529.289 704.078 530.367 703.469 531.352C702.906 532.336 702.039 533.203 700.867 533.953C699.648 534.703 698.078 535.312 696.156 535.781C694.281 536.203 692.078 536.414 689.547 536.414C687.438 536.414 685.375 536.203 683.359 535.781C681.391 535.359 679.633 534.68 678.086 533.742C676.539 532.852 675.273 531.68 674.289 530.227C673.305 528.727 672.742 526.945 672.602 524.883H653.969C653.969 527.977 654.719 531.07 656.219 534.164C657.766 537.211 660.016 539.93 662.969 542.32C665.922 544.758 669.578 546.727 673.938 548.227C678.344 549.727 683.406 550.477 689.125 550.477C694.328 550.477 699.039 549.914 703.258 548.789C707.477 547.617 711.086 546 714.086 543.938C717.039 541.875 719.312 539.438 720.906 536.625C722.547 533.766 723.367 530.648 723.367 527.273C723.367 523.617 722.547 520.477 720.906 517.852C719.312 515.18 717.086 512.906 714.227 511.031C711.367 509.203 707.969 507.703 704.031 506.531C700.094 505.359 695.828 504.398 691.234 503.648C688.047 503.18 685.422 502.641 683.359 502.031C681.297 501.375 679.68 500.648 678.508 499.852C677.289 499.102 676.445 498.258 675.977 497.32C675.508 496.336 675.273 495.281 675.273 494.156C675.273 493.031 675.531 491.977 676.047 490.992C676.609 489.961 677.406 489.07 678.438 488.32C679.562 487.477 681.016 486.82 682.797 486.352C684.578 485.883 686.664 485.648 689.055 485.648C691.867 485.648 694.258 486 696.227 486.703C698.242 487.406 699.836 488.344 701.008 489.516C701.852 490.406 702.484 491.414 702.906 492.539C703.328 493.617 703.539 494.789 703.539 496.055H723.086C723.086 492.539 722.312 489.281 720.766 486.281C719.219 483.281 716.992 480.68 714.086 478.477C711.133 476.32 707.547 474.633 703.328 473.414C699.109 472.148 694.352 471.516 689.055 471.516C683.992 471.516 679.445 472.148 675.414 473.414C671.383 474.68 667.961 476.391 665.148 478.547C662.336 480.703 660.18 483.211 658.68 486.07C657.18 488.93 656.43 491.93 656.43 495.07C656.43 498.305 657.156 501.164 658.609 503.648C660.109 506.133 662.172 508.312 664.797 510.188C667.422 512.109 670.562 513.75 674.219 515.109C677.922 516.422 682 517.523 686.453 518.414C689.969 519.07 692.875 519.727 695.172 520.383C697.469 521.039 699.32 521.742 700.727 522.492C702.086 523.289 703.023 524.133 703.539 525.023C704.102 525.914 704.383 526.945 704.383 528.117Z" fill="white" fill-opacity="0.05"/>
</svg>
